<svg xmlns="http://www.w3.org/2000/svg" viewBox="0 0 70 67.12"><defs><style>.cls-1,.cls-2{fill:none;stroke-linecap:round;stroke-linejoin:round;stroke-width:2px;}.cls-1{stroke:#09263c;}.cls-2{stroke:#008ecf;}</style></defs><g id="Layer_2" data-name="Layer 2"><g id="Layer_1-2" data-name="Layer 1"><path id="Shape_394" data-name="Shape 394" class="cls-1" d="M11,61.18a36.17,36.17,0,0,1,0-49.85,33.14,33.14,0,0,1,48.08,0,36.17,36.17,0,0,1,0,49.85,15.86,15.86,0,0,1-23,0l-12.54-13a2.89,2.89,0,0,0-4.07.11,3.15,3.15,0,0,0-.1,4.23,6.3,6.3,0,0,1,0,8.68A5.77,5.77,0,0,1,11,61.18Z"/><path id="Shape_395" data-name="Shape 395" class="cls-2" d="M50.67,24.33a4.31,4.31,0,0,1-4.83,1,4.67,4.67,0,0,1,0-8.5,4.31,4.31,0,0,1,4.83,1A4.72,4.72,0,0,1,50.67,24.33Z"/><path id="Oval_28" data-name="Oval 28" class="cls-2" d="M55.7,39.31a3.07,3.07,0,1,0-3-3.06A3,3,0,0,0,55.7,39.31Z"/><path id="Shape_396" data-name="Shape 396" class="cls-2" d="M43.36,55.76a6.29,6.29,0,0,1-1.28-6.68,5.83,5.83,0,0,1,10.92,0,6.29,6.29,0,0,1-1.28,6.68,5.75,5.75,0,0,1-8.36,0Z"/><path id="Shape_397" data-name="Shape 397" class="cls-2" d="M32.91,14.57a4.72,4.72,0,0,1,1,5,4.37,4.37,0,0,1-8.19,0,4.72,4.72,0,0,1,1-5,4.33,4.33,0,0,1,6.27,0Z"/></g></g></svg>