<svg xmlns="http://www.w3.org/2000/svg" viewBox="0 0 80.07 69.66"><defs><style>.cls-1,.cls-2{fill:none;stroke-linecap:round;stroke-linejoin:round;}.cls-1{stroke:#09263c;stroke-width:1.5px;}.cls-2{stroke:#008ecf;stroke-width:2px;}</style></defs><g id="Layer_2" data-name="Layer 2"><g id="Layer_1-2" data-name="Layer 1"><g id="bbaf8109-9f13-4292-93a5-f64c8837a5fa"><g id="b9e0ef10-b483-48bf-b18a-b0ec52bb02dd"><g id="af07f3f1-43dd-415f-b761-1a1a448f2215"><path id="e6716fd0-2509-4d30-a63b-1791c66ae0f2" class="cls-1" d="M.75,7.56A6.83,6.83,0,0,1,7.59.75H72.48a6.82,6.82,0,0,1,6.84,6.81V62.09a6.83,6.83,0,0,1-6.84,6.82H7.59A6.83,6.83,0,0,1,.75,62.09h0Z"/><path id="eb8b3581-cedd-49ab-9207-e38c04cdb03e" class="cls-1" d="M.75,17.77H79.32"/><path id="ab91f326-525b-4d15-9975-404320734df5" class="cls-1" d="M12.71,8.39a.86.86,0,1,1-.86.86h0a.87.87,0,0,1,.86-.86"/><path id="b1ed3016-cdbb-4bc9-8885-ce0e70f273e6" class="cls-1" d="M23,8.39a.86.86,0,1,1-.86.86h0A.87.87,0,0,1,23,8.39"/><path id="f84a1fe8-b94b-4bc6-b0f8-b650ee9658ce" class="cls-1" d="M33.2,8.39a.86.86,0,0,1,.86.85.84.84,0,0,1-.84.86.86.86,0,0,1-.87-.84h0a.86.86,0,0,1,.85-.86"/></g></g></g><path id="Shape_106" data-name="Shape 106" class="cls-2" d="M28.18,48.23h14.1"/><path id="Shape_107" data-name="Shape 107" class="cls-2" d="M29,31.5H55.49"/><path id="Shape_108" data-name="Shape 108" class="cls-2" d="M43,39.86H26.24"/><path id="Shape_109" data-name="Shape 109" class="cls-2" d="M41.39,56.57A16,16,0,1,1,58.06,37.78"/><path id="Shape_110" data-name="Shape 110" class="cls-2" d="M41.24,24.57c-8.36,9.06-8.21,20.85.15,32"/><path id="Shape_111" data-name="Shape 111" class="cls-2" d="M43.28,24.57a22.43,22.43,0,0,1,5.94,11.81"/><path id="Shape_106-2" data-name="Shape 106" class="cls-2" d="M56.13,48.23H42"/><path id="Shape_107-2" data-name="Shape 107" class="cls-2" d="M55.27,31.5H28.81"/><path id="Shape_108-2" data-name="Shape 108" class="cls-2" d="M41.35,39.86H58.06"/><path id="Shape_109-2" data-name="Shape 109" class="cls-2" d="M42.91,56.57A16,16,0,1,0,26.24,37.78"/><path id="Shape_110-2" data-name="Shape 110" class="cls-2" d="M43.07,24.57c8.36,9.06,8.21,20.85-.16,32"/><path id="Shape_111-2" data-name="Shape 111" class="cls-2" d="M41,24.57a22.44,22.44,0,0,0-6,11.81"/></g></g></svg>