<svg xmlns="http://www.w3.org/2000/svg" viewBox="0 0 70.5 62.48"><defs><style>.cls-1,.cls-2{fill:none;stroke-linecap:round;stroke-linejoin:round;stroke-width:2px;}.cls-1{stroke:#09263c;}.cls-2{stroke:#008ecf;}</style></defs><g id="Layer_2" data-name="Layer 2"><g id="Layer_1-2" data-name="Layer 1"><path id="e2e649d1-e320-466f-9e44-06f32637dd41" class="cls-1" d="M8.19,59.8l-3-5.29A3.07,3.07,0,0,1,6.3,50.36h0l7.75-4.5,6,10.56L12.27,61A3,3,0,0,1,8.19,59.8Z"/><path id="e5cebc9b-0033-4f16-a1cb-d92b898953b9" class="cls-1" d="M6.71,57.15,1,60.5"/><path id="e0c0d04e-00cb-4128-a085-a9f0e47aef87" class="cls-1" d="M15.05,47.54l5.18-3"/><path id="bc749bf2-f059-4c5c-b9dc-3bef138699dd" class="cls-1" d="M19.1,54.59l5.19-3.06"/><path id="ba42644b-d7a2-4b99-98c2-a8b303f20011" class="cls-1" d="M32.29,7.74h6a3,3,0,0,1,3,3h0v9.15h-12V10.79A3,3,0,0,1,32.29,7.74Z"/><path id="e331d876-a275-4c2f-bf57-d8581881d318" class="cls-1" d="M35.25,7.74V1"/><path id="f9e3129a-4f5e-42f9-a695-f7d0998d9908" class="cls-1" d="M39.29,20v6.13"/><path id="bd6c3b3e-a22a-40a7-9909-1a25d0a1f9ab" class="cls-1" d="M31.28,20v6.13"/><path id="aa1a6afb-ca5f-428b-8e95-acf58dbc8ce8" class="cls-1" d="M62.25,59.9l3-5.31a3.12,3.12,0,0,0-1.1-4.19l-7.82-4.54-6,10.61,7.8,4.61a3,3,0,0,0,4.09-1.14Z"/><path id="b48101e5-0c61-4a0f-bfd3-d310aef89159" class="cls-1" d="M63.76,57.24l5.74,3.39"/><path id="eed9b424-009a-4797-82dd-224e63272fa3" class="cls-1" d="M55.34,47.58l-5.2-3.08"/><path id="f0d607b2-d226-496b-b2fc-9696dd22f884" class="cls-1" d="M51.4,54.66l-5.21-3.07"/><ellipse class="cls-2" cx="35.29" cy="40.86" rx="9.24" ry="9.43"/></g></g></svg>