<svg xmlns="http://www.w3.org/2000/svg" viewBox="0 0 50 50"><defs><style>.cls-1,.cls-2{fill:none;stroke-linecap:round;stroke-linejoin:round;stroke-width:2px;}.cls-1{stroke:#008ecf;}.cls-2{stroke:#09263c;}</style></defs><g id="Layer_2" data-name="Layer 2"><g id="Layer_1-2" data-name="Layer 1"><path id="Oval_56" data-name="Oval 56" class="cls-1" d="M7.4,49A6.4,6.4,0,1,0,1,42.6,6.41,6.41,0,0,0,7.4,49Z"/><path id="Shape_573" data-name="Shape 573" class="cls-1" d="M13.8,42.6h16v4.8"/><path id="Shape_574" data-name="Shape 574" class="cls-1" d="M23.4,42.6v3.2"/><path id="Shape_575" data-name="Shape 575" class="cls-2" d="M13.8,31.4v-8A3.2,3.2,0,0,1,17,20.2H45.8A3.2,3.2,0,0,1,49,23.4V45.8A3.2,3.2,0,0,1,45.8,49H36.2"/><path id="Shape_576" data-name="Shape 576" class="cls-2" d="M20.2,20.2v-8a11.2,11.2,0,0,1,22.4,0v8"/><path id="Shape_577" data-name="Shape 577" class="cls-2" d="M27,36.4a4.8,4.8,0,1,1,7.7,1.74"/></g></g></svg>