<svg xmlns="http://www.w3.org/2000/svg" viewBox="0 0 70.65 71.29"><defs><style>.cls-1,.cls-2{fill:none;stroke-linecap:round;stroke-linejoin:round;stroke-width:2.15px;}.cls-1{stroke:#09263c;}.cls-2{stroke:#008ecf;}</style></defs><g id="Layer_2" data-name="Layer 2"><g id="Layer_1-2" data-name="Layer 1"><path id="Shape_535" data-name="Shape 535" class="cls-1" d="M24.9,70.22H4.05a3,3,0,0,1-3-3V4.08a3,3,0,0,1,3-3H43.64A3,3,0,0,1,45.75,2l11,11.14a3,3,0,0,1,.87,2.12v9.9"/><path id="Shape_536" data-name="Shape 536" class="cls-2" d="M10,25.94l3.23,3.25a1.49,1.49,0,0,0,1.17.44A1.51,1.51,0,0,0,15.5,29l6.42-9.07"/><path id="Shape_537" data-name="Shape 537" class="cls-1" d="M30.86,25.12H42.77"/><path id="Shape_538" data-name="Shape 538" class="cls-2" d="M10,41l3.23,3.25a1.49,1.49,0,0,0,1.17.44A1.53,1.53,0,0,0,15.5,44L21.92,35"/><path id="Shape_539" data-name="Shape 539" class="cls-1" d="M30.86,40.15H42.77"/><path id="Shape_540" data-name="Shape 540" class="cls-2" d="M67.73,45,45,68,33.84,70.21l2.23-11.27L58.79,36a6.27,6.27,0,0,1,8.91,0l0,0a6.39,6.39,0,0,1,0,9Z"/></g></g></svg>