<svg xmlns="http://www.w3.org/2000/svg" viewBox="0 0 70.5 48.87"><defs><style>.cls-1,.cls-2{fill:none;stroke-linecap:round;stroke-linejoin:round;stroke-width:2px;}.cls-1{stroke:#09263c;}.cls-2{stroke:#008ecf;}</style></defs><g id="Layer_2" data-name="Layer 2"><g id="Layer_1-2" data-name="Layer 1"><path id="ac6e420d-7206-4a8e-9af5-33e8dd3bceaf" class="cls-1" d="M35.39,4.17H11.84A4,4,0,0,0,8,8.08V35.34H35.39"/><path id="f917b8b6-9b3d-43ad-8f7e-6e7a5de34149" class="cls-1" d="M35.39,35.34H1a12.33,12.33,0,0,0,11.89,9.57h22.5"/><path id="b60985dc-2841-4891-b8a0-ea6d759371ec" class="cls-2" d="M39.89,8.32V5.09a4,4,0,0,1,4-4.09H65.54a4,4,0,0,1,4,4.09V43.78a4,4,0,0,1-4,4.09H43.85a4,4,0,0,1-4-4.09V35.34"/><path id="b9103e45-ed53-48cc-b4eb-1ff08bdc2df2" class="cls-2" d="M69.48,35.34H39.89"/><path id="a1b2a0fe-e9d5-4818-af88-20039fa9dc05" class="cls-2" d="M49.75,6.3h9.9"/><path id="a5a0b32a-f8bd-4624-be47-2d9bdb551d52" class="cls-2" d="M54.68,41.25a.5.5,0,0,1,.59.4.52.52,0,0,1-.39.6h-.2a.52.52,0,0,1,0-1"/><path class="cls-1" d="M19.68,14H53.45a1.85,1.85,0,0,1,1.83,1.88v7.73a1.85,1.85,0,0,1-1.83,1.88H19.68a1.85,1.85,0,0,1-1.82-1.88V15.89A1.85,1.85,0,0,1,19.68,14Z"/><path id="a4136f57-68aa-470c-b408-1059eba98f51" class="cls-1" d="M26.18,19.24a.5.5,0,0,1,.49.51.5.5,0,1,1-1,0,.5.5,0,0,1,.5-.51"/><path id="a573f45c-cf69-4947-9f97-49a12047be29" class="cls-1" d="M36.56,19.24a.51.51,0,0,1,0,1,.49.49,0,0,1-.52-.49v0a.51.51,0,0,1,.48-.51"/><path id="fd90c7dd-d334-4700-9c87-42e4e827d8e7" class="cls-1" d="M47,19.24a.5.5,0,0,1,.49.51.5.5,0,1,1-1,0,.5.5,0,0,1,.5-.51"/></g></g></svg>