<svg width="105" height="104" viewBox="0 0 105 104" fill="none" xmlns="http://www.w3.org/2000/svg">
<path d="M53.7803 87C77.8047 87 97.2803 67.5244 97.2803 43.5C97.2803 19.4756 77.8047 0 53.7803 0C29.7559 0 10.2803 19.4756 10.2803 43.5C10.2803 67.5244 29.7559 87 53.7803 87Z" fill="#09263C"/>
<path d="M30.1046 13.8594C30.2494 14.0037 30.3643 14.1751 30.4426 14.3639C30.521 14.5527 30.5612 14.7551 30.561 14.9595V41.8619C30.561 42.2747 30.397 42.6706 30.1051 42.9625C29.8132 43.2544 29.4173 43.4184 29.0045 43.4184H2.55649C2.14369 43.4184 1.74778 43.2544 1.45588 42.9625C1.16399 42.6706 1 42.2747 1 41.8619V9.19202C1 8.77922 1.16399 8.38331 1.45588 8.09141C1.74778 7.79952 2.14369 7.63553 2.55649 7.63553H23.2371C23.6491 7.63497 24.0446 7.79761 24.3371 8.08788L30.1046 13.8594Z" stroke="white" stroke-width="1.5" stroke-linecap="round" stroke-linejoin="round"/>
<path d="M19.6699 15.4139H25.8938" stroke="white" stroke-width="1.5" stroke-linecap="round" stroke-linejoin="round"/>
<path d="M5.66699 29.4161H25.8932" stroke="white" stroke-width="1.5" stroke-linecap="round" stroke-linejoin="round"/>
<path d="M5.66699 34.0836H25.8932" stroke="white" stroke-width="1.5" stroke-linecap="round" stroke-linejoin="round"/>
<path d="M5.66699 38.751H25.8932" stroke="white" stroke-width="1.5" stroke-linecap="round" stroke-linejoin="round"/>
<path d="M19.6699 20.0813H25.8938" stroke="white" stroke-width="1.5" stroke-linecap="round" stroke-linejoin="round"/>
<path d="M19.6699 24.7487H25.8938" stroke="white" stroke-width="1.5" stroke-linecap="round" stroke-linejoin="round"/>
<path d="M5.66699 15.4139V13.8594H15.0018V15.4139" stroke="white" stroke-width="1.5" stroke-linecap="round" stroke-linejoin="round"/>
<path d="M10.335 13.8594V24.7569" stroke="white" stroke-width="1.5" stroke-linecap="round" stroke-linejoin="round"/>
<path d="M7.22559 24.7487H13.4495" stroke="white" stroke-width="1.5" stroke-linecap="round" stroke-linejoin="round"/>
<path d="M102.441 48.4559C102.978 48.9945 103.279 49.7233 103.28 50.4833V100.079C103.28 100.456 103.206 100.829 103.062 101.177C102.918 101.525 102.707 101.842 102.441 102.108C102.174 102.374 101.858 102.586 101.51 102.73C101.162 102.874 100.789 102.948 100.412 102.948H51.6569C50.8952 102.948 50.1646 102.646 49.6251 102.108C49.0855 101.57 48.781 100.841 48.7783 100.079V39.851C48.7816 39.0897 49.0863 38.3607 49.6258 37.8235C50.1653 37.2864 50.8956 36.9848 51.6569 36.9848H89.7817C90.5417 36.9858 91.2705 37.2874 91.8091 37.8237L102.441 48.4559Z" stroke="white" stroke-width="1.5" stroke-linecap="round" stroke-linejoin="round"/>
<path d="M58.835 57.8381L61.9418 60.9408C62.0894 61.087 62.2669 61.1996 62.4621 61.2708C62.6573 61.3419 62.8656 61.37 63.0727 61.353C63.2798 61.336 63.4807 61.2744 63.6618 61.1723C63.8428 61.0703 63.9995 60.9303 64.1213 60.7619L70.3082 52.1015" stroke="#008ECF" stroke-width="1.5" stroke-linecap="round" stroke-linejoin="round"/>
<path d="M80.3359 57.067H91.8092" stroke="white" stroke-width="1.5" stroke-linecap="round" stroke-linejoin="round"/>
<path d="M58.835 72.1775L61.9418 75.2803C62.0894 75.4265 62.2669 75.5391 62.4621 75.6103C62.6573 75.6814 62.8656 75.7095 63.0727 75.6925C63.2798 75.6755 63.4807 75.6138 63.6618 75.5118C63.8428 75.4098 63.9995 75.2697 64.1213 75.1014L70.3082 66.4409" stroke="#008ECF" stroke-width="1.5" stroke-linecap="round" stroke-linejoin="round"/>
<path d="M80.3359 71.4003H91.8092" stroke="white" stroke-width="1.5" stroke-linecap="round" stroke-linejoin="round"/>
<path d="M58.835 86.517L61.9418 89.6197C62.0892 89.7661 62.2666 89.8788 62.4617 89.9501C62.6569 90.0215 62.8651 90.0497 63.0722 90.0329C63.2793 90.0161 63.4803 89.9547 63.6614 89.8528C63.8425 89.751 63.9994 89.6111 64.1213 89.4429L70.3082 80.7804" stroke="#008ECF" stroke-width="1.5" stroke-linecap="round" stroke-linejoin="round"/>
<path d="M80.3359 85.7398H91.8092" stroke="white" stroke-width="1.5" stroke-linecap="round" stroke-linejoin="round"/>
</svg>
