<svg xmlns="http://www.w3.org/2000/svg" viewBox="0 0 70.5 73.97"><defs><style>.cls-1,.cls-2{fill:none;stroke-linecap:round;stroke-linejoin:round;stroke-width:2px;}.cls-1{stroke:#09263c;}.cls-2{stroke:#008ecf;}</style></defs><g id="Layer_2" data-name="Layer 2"><g id="Layer_1-2" data-name="Layer 1"><path id="Shape_14" data-name="Shape 14" class="cls-1" d="M44.59,53.45V62c0,4.48-3.74,6.28-9.34,6.28s-9.34-1.8-9.34-6.28V53.45"/><path id="Shape_15" data-name="Shape 15" class="cls-2" d="M38.36,54.12V35.27a3.12,3.12,0,1,1,3.12,3.15H29a3.15,3.15,0,0,1,0-6.29,3,3,0,0,1,2.25.87,3,3,0,0,1,.87,2.27V54.12"/><path id="Shape_16" data-name="Shape 16" class="cls-1" d="M43,54.12A19.9,19.9,0,0,0,55.49,35.27,20.71,20.71,0,0,0,35.25,14.85,20.71,20.71,0,0,0,15,35.27,19.9,19.9,0,0,0,27.47,54.12Z"/><path id="Shape_17" data-name="Shape 17" class="cls-1" d="M25.91,60.41H44.59"/><path id="Shape_18" data-name="Shape 18" class="cls-2" d="M35.25,1V7"/><path id="Shape_19" data-name="Shape 19" class="cls-1" d="M35.25,68.26V73"/><path id="Shape_20" data-name="Shape 20" class="cls-2" d="M1,32.13H8.13"/><path id="Shape_21" data-name="Shape 21" class="cls-2" d="M9.07,8.85l5.94,6"/><path id="Shape_22" data-name="Shape 22" class="cls-2" d="M69.5,32.13H62.37"/><path id="Shape_23" data-name="Shape 23" class="cls-2" d="M61.43,8.85l-5.94,6"/></g></g></svg>