<svg xmlns="http://www.w3.org/2000/svg" viewBox="0 0 40.6 70"><defs><style>.cls-1,.cls-2{fill:none;stroke-linecap:round;stroke-linejoin:round;stroke-width:2.05px;}.cls-1{stroke:#09263c;}.cls-2{stroke:#008ecf;}</style></defs><g id="Layer_2" data-name="Layer 2"><g id="Layer_1-2" data-name="Layer 1"><g id="a0537885-e171-4bf2-9706-5266b91d75b7"><g id="ffc6f731-32d4-418b-a379-c85ce6f25bf2"><g id="bc0253b3-7878-4535-8c77-f6da7e99bada"><g id="bc4d32e7-3ab6-4093-8dca-3674b3a4b512"><path id="ba48c053-9795-4a0e-bd9b-6e2a06368aba" class="cls-1" d="M39.53,57.16H1.07"/><path id="a098432c-9362-4067-beeb-c36a2e15ff58" class="cls-2" d="M20.3,62.33h0a.74.74,0,0,1,.74.74h0a.74.74,0,0,1-.74.74h0a.74.74,0,0,1-.74-.74h0a.74.74,0,0,1,.74-.74h0"/><path id="fda6486b-9de9-48a9-a9e6-520e52b60f5e" class="cls-1" d="M1.07,6.93A5.89,5.89,0,0,1,6.94,1H33.66a5.91,5.91,0,0,1,5.92,5.89h0V63.07A5.91,5.91,0,0,1,33.67,69H6.94A5.89,5.89,0,0,1,1,63.08H1Z"/></g></g></g></g></g></g></svg>