<svg xmlns="http://www.w3.org/2000/svg" width="62.37" height="73.5" viewBox="0 0 62.37 73.5">
  <defs>
    <style>
      .cls-1, .cls-2, .cls-3 {
        fill: none;
        stroke-width: 2px;
      }

      .cls-1 {
        stroke: #008ecf;
      }

      .cls-1, .cls-3 {
        stroke-linecap: round;
        stroke-linejoin: round;
      }

      .cls-2, .cls-3 {
        stroke: #09263c;
      }

      .cls-2 {
        stroke-miterlimit: 10;
      }
    </style>
  </defs>
  <title>sdks--on-light</title>
  <g id="Layer_2" data-name="Layer 2">
    <g id="icons">
      <g>
        <g>
          <path id="Shape_1952" data-name="Shape 1952" class="cls-1" d="M26.74,45.1,17.85,54l8.89,8.88"/>
          <path id="Shape_1953" data-name="Shape 1953" class="cls-1" d="M35.63,45.1,44.52,54l-8.89,8.88"/>
        </g>
        <g>
          <path id="Rectangle-path_54" data-name="Rectangle-path 54" class="cls-2" d="M.75,38.46A3,3,0,0,1,3.4,35.22H59a3,3,0,0,1,2.64,3.24V69.51A3,3,0,0,1,59,72.75H3.4A3,3,0,0,1,.75,69.51Z"/>
          <g>
            <g>
              <path id="Shape_903" data-name="Shape 903" class="cls-3" d="M20.36,6.67a.67.67,0,0,0-.48.2.66.66,0,0,0-.2.48,2,2,0,0,1-3.91.81,1.36,1.36,0,0,0-1.24-.82c-1.59,0-4.37,0-4.37,0A9.92,9.92,0,0,0,.76,16a.67.67,0,0,0,.38.71.69.69,0,0,0,.79-.16,7.43,7.43,0,0,1,5.51-2.42c1.32,0,2.72.19,2.72,1.51v2.57H15.6V15.51a2,2,0,1,1,4.08,0,.68.68,0,0,0,.68.68h2a1.37,1.37,0,0,0,1.36-1.36V8A1.37,1.37,0,0,0,22.4,6.67Z"/>
              <polyline class="cls-3" points="15.6 31.63 15.6 18.23 10.16 18.23 10.16 31.63"/>
            </g>
            <g>
              <path id="Shape_911" data-name="Shape 911" class="cls-3" d="M32.39,21.65V8.72"/>
              <path id="Shape_913" data-name="Shape 913" class="cls-3" d="M34.6,7a2,2,0,0,1-2,1.75h-.47a2,2,0,0,1-2-1.75l-.64-5.1a1,1,0,0,1,.24-.78,1,1,0,0,1,.75-.34h3.72a1,1,0,0,1,.74.34,1,1,0,0,1,.24.78Z"/>
              <path id="Shape_914" data-name="Shape 914" class="cls-3" d="M32.38,25.47v6.16"/>
              <path class="cls-3" d="M36.27,31.63V23.52a1.88,1.88,0,0,0-1.88-1.87h-4a1.83,1.83,0,0,0-1.33.54,1.88,1.88,0,0,0-.55,1.33v8.11"/>
            </g>
            <path class="cls-3" d="M52.17,31.63V22.76A8.82,8.82,0,0,0,52.33,6v6.42l-2.88,2.88-2.87-2.88V6a8.82,8.82,0,0,0,.16,16.73v8.86"/>
          </g>
        </g>
      </g>
    </g>
  </g>
</svg>
