<svg xmlns="http://www.w3.org/2000/svg" viewBox="0 0 70 53.28"><defs><style>.cls-1,.cls-2{fill:none;stroke-linecap:round;stroke-linejoin:round;stroke-width:2px;}.cls-1{stroke:#008ecf;}.cls-2{stroke:#09263c;}</style></defs><g id="Layer_2" data-name="Layer 2"><g id="Layer_1-2" data-name="Layer 1"><g id="ac25d17b-d6f4-4616-8993-70cc807b2e3a"><g id="ae86610b-2618-480f-8116-a34eb794f911"><g id="a093eac3-20ef-4a5d-8b17-512fc2a28482"><path id="a4ff6bcf-58ab-4c92-8205-dfadd56e97d3" class="cls-1" d="M21.69,26.63A12.7,12.7,0,0,0,34.26,13.82,12.7,12.7,0,0,0,21.69,1,12.7,12.7,0,0,0,9.12,13.82h0A12.7,12.7,0,0,0,21.69,26.63Z"/><path id="baa5a6a7-eaf4-4eaa-8206-80c179921833" class="cls-1" d="M1,52.28a20.89,20.89,0,0,1,20.69-21.1,20.89,20.89,0,0,1,20.69,21.1Z"/><path id="ee1b14ff-62d1-4191-92f5-128b071c8e1a" class="cls-2" d="M48.31,52.28H69A16.44,16.44,0,0,0,52.73,35.7a16.07,16.07,0,0,0-7.46,1.86"/><path id="a9dae406-bc6a-4b32-898c-ddf4da34d3b8" class="cls-2" d="M52.57,31.21a9.8,9.8,0,1,0-9.6-9.8,9.71,9.71,0,0,0,9.6,9.8Z"/></g></g></g></g></g></svg>