<svg xmlns="http://www.w3.org/2000/svg" viewBox="0 0 79.84 69.52"><defs><style>.cls-1,.cls-2,.cls-3{fill:none;stroke-linecap:round;stroke-linejoin:round;}.cls-1{stroke:#09263c;stroke-width:1.84px;}.cls-2,.cls-3{stroke:#008ecf;}.cls-2{stroke-width:1.5px;}.cls-3{stroke-width:1.64px;}</style></defs><g id="Layer_2" data-name="Layer 2"><g id="Layer_1-2" data-name="Layer 1"><g id="bbaf8109-9f13-4292-93a5-f64c8837a5fa"><g id="b9e0ef10-b483-48bf-b18a-b0ec52bb02dd"><g id="af07f3f1-43dd-415f-b761-1a1a448f2215"><path id="e6716fd0-2509-4d30-a63b-1791c66ae0f2" class="cls-1" d="M.92,7.68A6.78,6.78,0,0,1,7.71.92H72.14a6.78,6.78,0,0,1,6.78,6.76V61.82a6.78,6.78,0,0,1-6.78,6.77H7.71A6.78,6.78,0,0,1,.92,61.82h0Z"/><path id="eb8b3581-cedd-49ab-9207-e38c04cdb03e" class="cls-1" d="M.92,17.82h78"/><path id="ab91f326-525b-4d15-9975-404320734df5" class="cls-1" d="M12.8,8.51a.85.85,0,1,1-.85.85h0a.85.85,0,0,1,.85-.85"/><path id="b1ed3016-cdbb-4bc9-8885-ce0e70f273e6" class="cls-1" d="M23,8.51a.85.85,0,1,1-.85.85h0A.85.85,0,0,1,23,8.51"/><path id="f84a1fe8-b94b-4bc6-b0f8-b650ee9658ce" class="cls-1" d="M33.14,8.51a.84.84,0,0,1,.85.84.85.85,0,1,1-1.69,0h0a.85.85,0,0,1,.84-.85"/><path id="e0e7afc8-1519-467b-8563-b00a6691a36c" class="cls-2" d="M52.19,32,63.46,43.29,52.19,54.53"/><path id="e0e7afc8-1519-467b-8563-b00a6691a36c-2" data-name="e0e7afc8-1519-467b-8563-b00a6691a36c" class="cls-2" d="M27.46,54.53,16.19,43.29,27.46,32"/><path id="e12b7c7d-b71c-4254-b5ba-81eae78d8321" class="cls-3" d="M45.46,31.7,34.18,54.8"/></g></g></g></g></g></svg>