<svg xmlns="http://www.w3.org/2000/svg" id="Layer_1" data-name="Layer 1" viewBox="0 0 1673.98 243.64"><defs><style>.cls-1{fill:#008ecf}.cls-2{fill:#020b13}</style></defs><path d="M125.92,0A125.9,125.9,0,0,0,81.31,243.64L92,214a94.43,94.43,0,1,1,67.93,0l10.64,29.64A125.9,125.9,0,0,0,125.92,0Z" class="cls-1"/><path d="M102.59,184.36l10.65-29.67a31.47,31.47,0,1,1,25.36,0l10.65,29.67a63,63,0,1,0-46.66,0Z" class="cls-2"/><path d="M738.17,94.76c1.58,0,3.38.09,5.42.29s4,.46,6,.79,3.78.66,5.42,1a34.83,34.83,0,0,1,3.65.88l-3.16,16a59.7,59.7,0,0,0-20.11-3,48.15,48.15,0,0,0-10.15,1.08q-5,1.09-6.61,1.48v86.17H700.31v-98.2a126.09,126.09,0,0,1,16.17-4.43A103.88,103.88,0,0,1,738.17,94.76Z" class="cls-1"/><path d="M802.46,94.36q11,0,18.64,2.86a30.17,30.17,0,0,1,12.22,8.09,30.63,30.63,0,0,1,6.61,12.42,60.18,60.18,0,0,1,2,15.87v64.08l-6.6,1.09c-2.83.46-6,.88-9.57,1.28s-7.39.75-11.53,1.08-8.25.5-12.33.5a67.15,67.15,0,0,1-16-1.78,35.59,35.59,0,0,1-12.62-5.62A25.64,25.64,0,0,1,765,184.08a35.58,35.58,0,0,1-3-15.18,29.19,29.19,0,0,1,3.45-14.59,27.54,27.54,0,0,1,9.37-9.87,43.64,43.64,0,0,1,13.8-5.52,75.46,75.46,0,0,1,16.56-1.77,56.71,56.71,0,0,1,5.72.3c2,.19,3.85.46,5.62.78s3.32.63,4.64.89,2.23.46,2.76.59v-5.12a41.12,41.12,0,0,0-1-9,20.56,20.56,0,0,0-3.55-7.88,18,18,0,0,0-7-5.52,27.44,27.44,0,0,0-11.53-2.07A86.25,86.25,0,0,0,785,111.42a55.12,55.12,0,0,0-10.15,2.66L772.69,98.9a56.9,56.9,0,0,1,11.83-3.06A101.75,101.75,0,0,1,802.46,94.36ZM804,186.25c4.34,0,8.18-.1,11.54-.3a51.45,51.45,0,0,0,8.38-1.08V154.31a23.42,23.42,0,0,0-6.41-1.68,71.33,71.33,0,0,0-10.75-.69,70.18,70.18,0,0,0-8.77.59,26.87,26.87,0,0,0-8.48,2.47,18.19,18.19,0,0,0-6.41,5.12,13.46,13.46,0,0,0-2.56,8.58q0,9.86,6.31,13.7T804,186.25Z" class="cls-1"/><path d="M928.14,44.42h18.33v155c-4.2,1.18-30.3,2.36-38.84,2.36a57.53,57.53,0,0,1-21.29-3.74,45.6,45.6,0,0,1-16.17-10.65,47.15,47.15,0,0,1-10.36-16.86,64.78,64.78,0,0,1-3.64-22.38,72.93,72.93,0,0,1,3.05-21.69,48.84,48.84,0,0,1,9-17,40.87,40.87,0,0,1,14.5-11,46.45,46.45,0,0,1,19.62-3.94A47.81,47.81,0,0,1,918,96.92a50,50,0,0,1,10.16,4.54Zm0,74.2a37.88,37.88,0,0,0-9.67-5.33,36.26,36.26,0,0,0-13.8-2.56,29.38,29.38,0,0,0-13.5,2.86,24.67,24.67,0,0,0-9.17,7.88,33.3,33.3,0,0,0-5.13,11.93,66.48,66.48,0,0,0-1.58,14.79q0,17.94,8.88,27.71c5.91,6.5,14,8.76,23.8,8.76,5,0,18.32-.65,20.17-1.17Z" class="cls-1"/><path d="M1128.62,186.25q11.24,0,16.66-3a10,10,0,0,0,5.42-9.46,12.57,12.57,0,0,0-5.32-10.65q-5.33-3.94-17.55-8.87-5.91-2.37-11.34-4.84a39.88,39.88,0,0,1-9.36-5.81,25.44,25.44,0,0,1-6.31-8.09,25.78,25.78,0,0,1-2.37-11.63q0-13.6,10.06-21.59t27.41-8a78.74,78.74,0,0,1,8.67.49q4.34.5,8.09,1.19t6.6,1.48c1.91.52,3.38,1,4.44,1.38l-3.35,15.77a47,47,0,0,0-9.27-3.25,59.69,59.69,0,0,0-15.18-1.68,28,28,0,0,0-13.41,3.06,10.11,10.11,0,0,0-5.72,9.56,13,13,0,0,0,1.28,5.92,13.62,13.62,0,0,0,3.94,4.63,32.93,32.93,0,0,0,6.61,3.85q3.95,1.77,9.46,3.74,7.31,2.76,13,5.42a41,41,0,0,1,9.76,6.22,23.85,23.85,0,0,1,6.21,8.57,31,31,0,0,1,2.17,12.33q0,14.19-10.55,21.49t-30.07,7.29q-13.61,0-21.3-2.26c-5.12-1.51-8.61-2.67-10.45-3.45l3.36-15.78q3.15,1.18,10,3.55T1128.62,186.25Z" class="cls-1"/><path d="M1082,199.46l-40.82,2.17a45.3,45.3,0,0,1-20.3-3.45,31.8,31.8,0,0,1-12.92-9.67,37.3,37.3,0,0,1-6.8-14.88,86.1,86.1,0,0,1-2-19.13V96.92h18.33v53.64a86.81,86.81,0,0,0,1.29,16.16,27.31,27.31,0,0,0,4.23,10.85,16.86,16.86,0,0,0,7.89,6c3.29,1.25,8.76.93,13.61.58,11.36-.83,14-1.16,19.12-1.53V96.92H1082Z" class="cls-1"/><rect width="18.34" height="102.53" x="963.67" y="96.92" class="cls-1"/><circle cx="972.84" cy="56.25" r="11.83" class="cls-1"/><path d="M547.46,96.92c-4.34-1-29.91-2.16-38.45-2.16a54.14,54.14,0,0,0-20.9,3.84,44.67,44.67,0,0,0-15.68,10.65,45.84,45.84,0,0,0-9.76,16.17,60.85,60.85,0,0,0-3.35,20.6c0,8.55,1.34,23,3.7,29.19a44.42,44.42,0,0,0,9.66,15.48,37.89,37.89,0,0,0,14.3,9.17,51,51,0,0,0,17.45,3,46.36,46.36,0,0,0,15.87-2.47,48.86,48.86,0,0,0,9.17-4v4.34q0,14.19-7.19,20.7t-23.57,6.51c-2.5,0-19.83,0-25.32-.12v15.87c5.38,0,22.4,0,24.93,0q24.84,0,37.07-10.65t12.22-34.3ZM519.61,185a41.52,41.52,0,0,1-13.4,2.07,28.28,28.28,0,0,1-10.36-2A23.85,23.85,0,0,1,487,179a30.06,30.06,0,0,1-6.11-10.45c-1.52-4.21-2.42-16.37-2.42-22.29q0-16,8-25.63t22.78-9.67a90.85,90.85,0,0,1,12.52.69,63.85,63.85,0,0,1,7.39,1.48l.15,67A32.88,32.88,0,0,1,519.61,185Z" class="cls-2"/><path d="M447.13,148.19a64.83,64.83,0,0,1-3.55,22.09,50.58,50.58,0,0,1-10,16.95,43.74,43.74,0,0,1-15.28,11,50.55,50.55,0,0,1-38.65,0,43.83,43.83,0,0,1-15.28-11,50.39,50.39,0,0,1-10-16.95,64.83,64.83,0,0,1-3.55-22.09,65,65,0,0,1,3.55-22,50.23,50.23,0,0,1,10-17.06,43.8,43.8,0,0,1,15.28-10.94,50.43,50.43,0,0,1,38.65,0,43.71,43.71,0,0,1,15.28,10.94,50.41,50.41,0,0,1,10,17.06A65,65,0,0,1,447.13,148.19Zm-19.13,0q0-17.34-7.79-27.5T399,110.53q-13.41,0-21.2,10.16T370,148.19q0,17.35,7.79,27.51T399,185.85q13.41,0,21.19-10.15T428,148.19Z" class="cls-2"/><path d="M600.3,96.92l40.82-2.16a45,45,0,0,1,20.31,3.45,31.74,31.74,0,0,1,12.91,9.66,37.43,37.43,0,0,1,6.81,14.89,86.61,86.61,0,0,1,2,19.12v57.58H664.78V145.82a87.92,87.92,0,0,0-1.28-16.16,27.46,27.46,0,0,0-4.24-10.85,16.76,16.76,0,0,0-7.89-6c-3.29-1.25-7.6-.9-12.45-.66l-20.28,1v86.28H600.3Z" class="cls-2"/><path d="M336.94,201.43c-.93-.54-22.59-13.71-22.59-32.45V44.42h18.34V169c0,11,15.18,20.37,15.32,20.49Z" class="cls-2"/><rect width="18.34" height="102.53" x="564.77" y="96.92" class="cls-2"/><circle cx="573.94" cy="56.25" r="11.83" class="cls-2"/><rect width="5.28" height="199.22" x="1274.02" y="44.41" class="cls-2"/><path d="M1467.43,147.58q0,13.18-4.11,22.93a42.26,42.26,0,0,1-11.57,16.11,49.07,49.07,0,0,1-17.87,9.53,78.6,78.6,0,0,1-22.85,3.14q-6.15,0-13.55-.51a80.55,80.55,0,0,1-13.41-2V98.36a80.5,80.5,0,0,1,13.41-2q7.39-.51,13.55-.51A78.6,78.6,0,0,1,1433.88,99a49.05,49.05,0,0,1,17.87,9.52,42.37,42.37,0,0,1,11.57,16.12Q1467.43,134.4,1467.43,147.58Zm-55.23,39.26q20.22,0,30.18-10.33t10-28.93q0-18.6-10-28.93t-30.18-10.33q-6,0-9.3.15c-2.2.1-3.74.2-4.62.29V186.4q1.32.15,4.62.3T1412.2,186.84Z" class="cls-2"/><path d="M1546.09,160.33a48.31,48.31,0,0,1-2.63,16.4,37.51,37.51,0,0,1-7.4,12.6,32.52,32.52,0,0,1-11.35,8.13,37.48,37.48,0,0,1-28.72,0,32.43,32.43,0,0,1-11.35-8.13,37.51,37.51,0,0,1-7.4-12.6,52.26,52.26,0,0,1,0-32.74,37.55,37.55,0,0,1,7.4-12.67,32.55,32.55,0,0,1,11.35-8.13,37.6,37.6,0,0,1,28.72,0,32.65,32.65,0,0,1,11.35,8.13,37.55,37.55,0,0,1,7.4,12.67A48.62,48.62,0,0,1,1546.09,160.33Zm-14.21,0q0-12.9-5.78-20.44t-15.75-7.54q-10,0-15.75,7.54t-5.78,20.44q0,12.88,5.78,20.43t15.75,7.55q10,0,15.75-7.55T1531.88,160.33Z" class="cls-2"/><path d="M1591.07,200.17a41.33,41.33,0,0,1-16.19-2.93,32.42,32.42,0,0,1-11.72-8.2,34,34,0,0,1-7.11-12.53,52,52,0,0,1-2.34-16,48.47,48.47,0,0,1,2.56-16.11,38.13,38.13,0,0,1,7.25-12.67,32.41,32.41,0,0,1,11.51-8.35,37.2,37.2,0,0,1,15.16-3,61.23,61.23,0,0,1,10.25.87,47.5,47.5,0,0,1,9.82,2.79l-3.08,11.57a32.23,32.23,0,0,0-7.11-2.34,39.8,39.8,0,0,0-8.56-.88q-11.43,0-17.51,7.17t-6.08,20.95a42.82,42.82,0,0,0,1.39,11.28,23.18,23.18,0,0,0,4.4,8.79,19.48,19.48,0,0,0,7.69,5.64,29.32,29.32,0,0,0,11.42,2,43.5,43.5,0,0,0,9.82-1,36.34,36.34,0,0,0,6.88-2.2l1.91,11.43a14.52,14.52,0,0,1-3.37,1.39,47.25,47.25,0,0,1-5,1.17q-2.79.51-5.93.88A53.75,53.75,0,0,1,1591.07,200.17Z" class="cls-2"/><path d="M1643.8,188.6q8.35,0,12.38-2.2a7.42,7.42,0,0,0,4-7,9.36,9.36,0,0,0-4-7.91q-4-2.93-13-6.59-4.4-1.76-8.42-3.59a29.38,29.38,0,0,1-7-4.32,18.69,18.69,0,0,1-4.69-6,19.19,19.19,0,0,1-1.76-8.64q0-10.11,7.47-16t20.36-5.93a58.1,58.1,0,0,1,6.45.36c2.15.24,4.15.54,6,.88s3.49.71,4.9,1.1,2.52.73,3.3,1l-2.49,11.72a34.62,34.62,0,0,0-6.89-2.41,44.36,44.36,0,0,0-11.28-1.25,20.89,20.89,0,0,0-10,2.27,7.54,7.54,0,0,0-4.25,7.11,9.62,9.62,0,0,0,1,4.39,10,10,0,0,0,2.93,3.44,24,24,0,0,0,4.9,2.86c2,.88,4.3,1.81,7,2.78q5.42,2.05,9.66,4a30.32,30.32,0,0,1,7.26,4.62,17.58,17.58,0,0,1,4.61,6.37,23.17,23.17,0,0,1,1.61,9.15q0,10.56-7.84,16t-22.34,5.42q-10.1,0-15.82-1.68a79.08,79.08,0,0,1-7.76-2.57l2.49-11.71q2.34.87,7.47,2.63T1643.8,188.6Z" class="cls-2"/></svg>